# Blender 4.4.3
# www.blender.org
mtllib Untitled.mtl
o Circle
v 0.000000 0.000000 -1.135980
v -0.983788 0.000000 -0.567990
v -0.983788 0.000000 0.567990
v 0.000000 0.000000 1.135980
v 0.983788 0.000000 0.567990
v 0.983788 0.000000 -0.567990
v 0.000000 1.000000 -1.135980
v -0.983788 1.000000 -0.567990
v -0.983788 1.000000 0.567990
v 0.983788 1.000000 -0.567990
v -0.983788 0.000000 0.567990
v 0.000000 0.000000 1.135980
v 0.983788 0.000000 0.567990
v 0.983788 0.000000 -0.567990
v 0.000000 1.000000 -1.135980
v -0.983788 1.000000 -0.567990
v -0.983788 1.000000 0.567990
v 0.000000 1.000000 1.135980
v 0.983788 1.000000 0.567990
v 0.983788 1.000000 -0.567990
vn 0.5000 -0.0000 0.8660
vn -0.5000 -0.0000 0.8660
vn -0.0000 1.0000 -0.0000
vn 1.0000 -0.0000 -0.0000
vn -0.5000 -0.0000 -0.8660
vn -1.0000 -0.0000 -0.0000
vn 0.5000 -0.0000 -0.8660
vn -0.0000 -1.0000 -0.0000
vt 0.000000 0.000000
s 0
usemtl Eau
f 2/1/1 1/1/1 7/1/1 8/1/1
f 1/1/2 6/1/2 10/1/2 7/1/2
f 5/1/3 4/1/3 12/1/3 13/1/3
f 3/1/4 2/1/4 8/1/4 9/1/4
f 10/1/3 6/1/3 14/1/3 20/1/3
f 9/1/3 8/1/3 16/1/3 17/1/3
f 2/1/3 3/1/3 4/1/3 5/1/3 6/1/3 1/1/3
f 7/1/3 10/1/3 20/1/3 15/1/3
f 13/1/5 12/1/5 18/1/5 19/1/5
f 14/1/6 13/1/6 19/1/6 20/1/6
f 12/1/7 11/1/7 17/1/7 18/1/7
f 16/1/8 15/1/8 20/1/8 19/1/8 18/1/8 17/1/8
f 3/1/3 9/1/3 17/1/3 11/1/3
f 8/1/3 7/1/3 15/1/3 16/1/3
f 6/1/3 5/1/3 13/1/3 14/1/3
f 4/1/3 3/1/3 11/1/3 12/1/3
